<?xml version="1.0" encoding="UTF-8" standalone="no"?>
<svg
   xmlns:dc="http://purl.org/dc/elements/1.1/"
   xmlns:cc="http://creativecommons.org/ns#"
   xmlns:rdf="http://www.w3.org/1999/02/22-rdf-syntax-ns#"
   xmlns:svg="http://www.w3.org/2000/svg"
   xmlns="http://www.w3.org/2000/svg"
   viewBox="0 0 420.60751 378.37875"
   height="378.37875"
   width="420.60751"
   xml:space="preserve"
   version="1.1"
   id="svg2"><metadata
     id="metadata8"><rdf:RDF><cc:Work
         rdf:about=""><dc:format>image/svg+xml</dc:format><dc:type
           rdf:resource="http://purl.org/dc/dcmitype/StillImage" /></cc:Work></rdf:RDF></metadata><defs
     id="defs6"><clipPath
       id="clipPath16"
       clipPathUnits="userSpaceOnUse"><path
         id="path18"
         d="m 0,302.703 336.486,0 L 336.486,0 0,0 0,302.703 Z" /></clipPath><clipPath
       id="clipPath32"
       clipPathUnits="userSpaceOnUse"><path
         id="path34"
         d="m 0,302.703 336.486,0 L 336.486,0 0,0 0,302.703 Z" /></clipPath></defs><g
     transform="matrix(1.25,0,0,-1.25,0,378.37875)"
     id="g10"><g
       id="g12"><g
         clip-path="url(#clipPath16)"
         id="g14"><g
           transform="translate(57.748,80.2256)"
           id="g20"><path
             id="path22"
             style="fill:#292929;fill-opacity:1;fill-rule:nonzero;stroke:#373535;stroke-width:1;stroke-linecap:butt;stroke-linejoin:miter;stroke-miterlimit:10;stroke-dasharray:none;stroke-opacity:1"
             d="m 0,0 c 0,0 -18.612,39.666 13.36,49.999 0,0 -18.194,116.804 93.806,110.804 0,0 130,-2.667 118,-134 0,0 28.667,103.335 -61.333,138.668 C 73.833,200.804 -4.889,152.499 3.86,55.999 3.86,55.999 -34.14,40.666 0,0" /></g></g></g><text
       id="text24"
       style="font-variant:normal;font-weight:normal;font-stretch:normal;font-size:162px;font-family:'Futura LT';-inkscape-font-specification:FuturaLT;writing-mode:lr-tb;fill:#373535;fill-opacity:1;fill-rule:nonzero;stroke:none"
       transform="matrix(1,0,0,-1,87.7476,48.7607)"><tspan
         id="tspan26"
         y="0"
         x="0 93.636002">51</tspan></text>
<g
       id="g28"><g
         clip-path="url(#clipPath32)"
         id="g30"><g
           transform="translate(223.5454,48.7607)"
           id="g36"><path
             id="path38"
             style="fill:#373535;fill-opacity:1;fill-rule:nonzero;stroke:none"
             d="m 0,0 14.604,0 23.125,0 c 0,0 13.833,15.131 19.167,34.465 0,0 -10.537,-22.471 -22.667,-28.334 L 3.896,6.131 0,0 Z" /></g></g></g></g></svg>